<?xml version="1.0" encoding="utf-8"?>
<!-- Generator: Adobe Illustrator 23.0.1, SVG Export Plug-In . SVG Version: 6.00 Build 0)  -->
<svg version="1.1" id="Lager_1" xmlns="http://www.w3.org/2000/svg" xmlns:xlink="http://www.w3.org/1999/xlink" x="0px" y="0px"
	 viewBox="0 0 270 90" style="enable-background:new 0 0 270 90;" xml:space="preserve">
<style type="text/css">
	.st0{fill:#020202;stroke:#000000;stroke-width:3;stroke-linecap:round;}
	.st1{fill-rule:evenodd;clip-rule:evenodd;fill:#020202;stroke:#FFFFFF;stroke-width:1.5;}
	
		.st2{fill-rule:evenodd;clip-rule:evenodd;fill:#020202;stroke:#FFFFFF;stroke-width:1.5;stroke-linecap:round;stroke-linejoin:round;}
	.st3{fill:#020202;stroke:#FFFFFF;stroke-width:1.5;stroke-linecap:round;stroke-linejoin:round;}
	.st4{fill-rule:evenodd;clip-rule:evenodd;fill:#020202;stroke:#FFFFFF;stroke-width:1.5;stroke-linejoin:round;}
	.st5{fill:#020202;stroke:#FFFFFF;stroke-width:1.5;stroke-linecap:round;}
	.st6{fill:none;stroke:#000000;stroke-width:1.5;stroke-linecap:round;}
	.st7{fill-rule:evenodd;clip-rule:evenodd;fill:#FFFFFF;stroke:#000000;stroke-width:1.5;}
	
		.st8{fill-rule:evenodd;clip-rule:evenodd;fill:#FFFFFF;stroke:#000000;stroke-width:1.5;stroke-linecap:round;stroke-linejoin:round;}
	.st9{fill:none;stroke:#000000;stroke-width:1.5;stroke-linecap:round;stroke-linejoin:round;}
	.st10{fill-rule:evenodd;clip-rule:evenodd;fill:#FFFFFF;stroke:#000000;stroke-width:1.5;stroke-linejoin:round;}
	.st11{fill-rule:evenodd;clip-rule:evenodd;stroke:#000000;stroke-width:1.5;stroke-linecap:round;stroke-linejoin:round;}
	.st12{fill:#FFFFFF;stroke:#000000;stroke-width:1.5;stroke-linecap:round;}
</style>
<g>
	<path class="st0" d="M25.2,63.8c0.6-1.7,0.8-3.5,0.3-4.6c0,0-0.7-1.7-2.1-2.3c0.1-0.2,0.2-0.4,0.2-0.6v-2.5H25
		c0.6,0,1.1-0.5,1.1-1.1s-0.5-1.1-1.1-1.1h-1.4v-0.9c0-0.6-0.5-1.1-1.1-1.1s-1.1,0.5-1.1,1.1v0.9H20c-0.6,0-1.1,0.5-1.1,1.1
		s0.5,1.1,1.1,1.1h1.4v2.5c0,0.2,0.1,0.4,0.2,0.6c-1.4,0.6-2.1,2.3-2.1,2.3c-0.6,1.3-0.2,3.4,0.5,5.4c-4.3-4.6-11.1-5.7-13.5-0.4
		c-3,6,5,10,5,10v7.5c5.5,3.5,15.5,3.5,21,0v-7c0,0,9-4.5,6-10.5C35.4,59.2,29.1,59.8,25.2,63.8z"/>
	<circle class="st0" cx="51" cy="56.7" r="2"/>
	<circle class="st0" cx="67.5" cy="52.2" r="2"/>
	<circle class="st0" cx="84" cy="56.7" r="2"/>
	<circle class="st0" cx="59" cy="53.2" r="2"/>
	<circle class="st0" cx="76" cy="53.7" r="2"/>
	<path class="st0" d="M76,55.7l-5.5,13.5l-3-15l-3,15l-5.5-14v14.5l-7-11l2,12c0.8-0.1,1.6-0.3,2.5-0.4c-0.8,0.1-1.7,0.2-2.5,0.4
		c0,2,1.5,2,2.5,4c1,1.5,1,1,0.5,3.5c-1.5,1-1.5,2.5-1.5,2.5C54,82.2,56,83.2,56,83.2c6.5,1,16.5,1,23,0c0,0,1.5-1,0-2.5
		c0,0,0.5-1.5-1-2.5c-0.5-2.5-0.5-2,0.5-3.5c1-2,2.5-2,2.5-4c-4.2-0.7-8.7-1.1-13.2-1.1c5.2,0,10.1,0.3,13.2,1.1l2-12l-7,11V55.7z
		 M66.4,69.6c0.1,0,0.2,0,0.3,0C66.6,69.6,66.5,69.6,66.4,69.6z"/>
	<path class="st0" d="M112.5,78.7c-3.4,2.4-10.1,1-13.5,2c0,0-1.6,0.1-3,2c0.7,1,1.6,1,3,0.5c3.4-1,10.1,0.5,13.5-1
		c3.4,1.5,10.1,0,13.5,1c1.3,0.5,2.3,0.5,3-0.5c-1.3-1.5-3-2-3-2C122.6,79.7,115.9,81.1,112.5,78.7z"/>
	<path class="st0" d="M107.5,70.7c0,0-2.5,1.5-2.5,4c0,0-0.5,0.5,0,2c2.5,2.5,12.5,2.5,15,0c0.5-1.5,0-2,0-2c0-2.5-2.5-4-2.5-4
		c5.5-1.5,6-11.5-5-15.5C101.5,59.2,102,69.2,107.5,70.7z"/>
	<circle class="st0" cx="112.5" cy="52.7" r="2.5"/>
	<path class="st0" d="M157,54.7c0,0,0-3-1-3c-1.7,1-2.5,3-2.5,3h-2c0,0-2-3.5-3-2.5c0,1-0.2,2,0.5,3c-0.1,1.6-2,3.5-2,3.5
		s-6,10-6,12c0,5,3,4,4,4c1.2-0.8,0-2,1-2c1.4,0-1,2.1,0,3c2.2,0.3,2-2,5-4c1.8-1.2,5.6-4,7.2-6.6c0.6,11.8-8.2,10.1-8.2,18.6h23
		C173.5,62.7,167.5,55.7,157,54.7z"/>
	<polygon class="st0" points="213,76.7 212.5,76.7 211,74.2 211,61.7 214,58.7 214,53.7 210,53.7 210,55.7 205,55.7 205,53.7 
		200,53.7 200,55.7 195,55.7 195,53.7 191,53.7 191,58.7 194,61.7 194,74.2 192.5,76.7 192,76.7 192,80.7 189,80.7 189,83.7 
		216,83.7 216,80.7 213,80.7 	"/>
	<path class="st0" d="M251.1,70.7c1.5-1.2,2.4-3,2.4-5c0-2.4-1.3-4.5-3.3-5.6c0.5-0.7,0.8-1.5,0.8-2.4c0-2.2-1.8-4-4-4s-4,1.8-4,4
		c0,0.9,0.3,1.7,0.8,2.4c-2,1.1-3.3,3.2-3.3,5.6c0,2,0.9,3.8,2.4,5c-3,1.1-7.4,5.5-7.4,13.5h23C258.5,76.3,254.1,71.8,251.1,70.7z"
		/>
</g>
<g transform="translate(0,0)">
	<path class="st1" d="M23.4,56.9c0.1-0.2,0.2-0.4,0.2-0.6v-2.5H25c0.6,0,1.1-0.5,1.1-1.1s-0.5-1.1-1.1-1.1h-1.4v-0.9
		c0-0.6-0.5-1.1-1.1-1.1s-1.1,0.5-1.1,1.1v0.9H20c-0.6,0-1.1,0.5-1.1,1.1s0.5,1.1,1.1,1.1h1.4v2.5c0,0.2,0.1,0.4,0.2,0.6
		c-1.4,0.6-2.1,2.3-2.1,2.3c-1.5,3,3,10.5,3,10.5s4.5-7.5,3-10.5C25.5,59.2,24.8,57.5,23.4,56.9z"/>
	<path class="st2" d="M11.5,81.7c5.5,3.5,15.5,3.5,21,0v-7c0,0,9-4.5,6-10.5c-4-6.5-13.5-3.5-16,4v3.5v-3.5c-3.5-7.5-13-10.5-16-4
		c-3,6,5,10,5,10V81.7z"/>
	<path class="st3" d="M11.5,74.7c5.5-3,15.5-3,21,0"/>
	<path class="st3" d="M11.5,78.2c5.5-3,15.5-3,21,0"/>
	<path class="st3" d="M11.5,81.7c5.5-3,15.5-3,21,0"/>
</g>
<g transform="translate(45,0)">
	<path class="st2" d="M8,56.7c0,1.1-0.9,2-2,2s-2-0.9-2-2s0.9-2,2-2S8,55.6,8,56.7z"/>
	<path class="st2" d="M24.5,52.2c0,1.1-0.9,2-2,2s-2-0.9-2-2s0.9-2,2-2S24.5,51.1,24.5,52.2z"/>
	<path class="st2" d="M41,56.7c0,1.1-0.9,2-2,2s-2-0.9-2-2s0.9-2,2-2S41,55.6,41,56.7z"/>
	<path class="st2" d="M16,53.2c0,1.1-0.9,2-2,2s-2-0.9-2-2s0.9-2,2-2S16,52.1,16,53.2z"/>
	<path class="st2" d="M33,53.7c0,1.1-0.9,2-2,2s-2-0.9-2-2s0.9-2,2-2S33,52.6,33,53.7z"/>
	<path class="st4" d="M9,70.7c8.5-1.5,21-1.5,27,0l2-12l-7,11v-14l-5.5,13.5l-3-15l-3,15l-5.5-14v14.5l-7-11L9,70.7z"/>
	<path class="st4" d="M9,70.7c0,2,1.5,2,2.5,4c1,1.5,1,1,0.5,3.5c-1.5,1-1.5,2.5-1.5,2.5C9,82.2,11,83.2,11,83.2c6.5,1,16.5,1,23,0
		c0,0,1.5-1,0-2.5c0,0,0.5-1.5-1-2.5c-0.5-2.5-0.5-2,0.5-3.5c1-2,2.5-2,2.5-4C27.5,69.2,17.5,69.2,9,70.7z"/>
	<path class="st3" d="M11.5,74.7c3.5-1,18.5-1,22,0"/>
	<path class="st3" d="M12,78.2c6-1,15-1,21,0"/>
</g>
<g transform="translate(90,0)">
	<g>
		<path class="st4" d="M9,80.7c3.4-1,10.1,0.4,13.5-2c3.4,2.4,10.1,1,13.5,2c0,0,1.7,0.5,3,2c-0.7,1-1.7,1-3,0.5
			c-3.4-1-10.1,0.5-13.5-1c-3.4,1.5-10.1,0-13.5,1c-1.4,0.5-2.3,0.5-3-0.5C7.4,80.7,9,80.7,9,80.7z"/>
		<path class="st4" d="M15,76.7c2.5,2.5,12.5,2.5,15,0c0.5-1.5,0-2,0-2c0-2.5-2.5-4-2.5-4c5.5-1.5,6-11.5-5-15.5
			c-11,4-10.5,14-5,15.5c0,0-2.5,1.5-2.5,4C15,74.7,14.5,75.2,15,76.7z"/>
		<path class="st4" d="M25,52.7c0,1.4-1.1,2.5-2.5,2.5S20,54.1,20,52.7s1.1-2.5,2.5-2.5S25,51.3,25,52.7z"/>
	</g>
	<path class="st5" d="M17.5,70.7h10 M15,74.7h15 M22.5,60.2v5 M20,62.7h5"/>
</g>
<g transform="translate(135,0)">
	<path class="st2" d="M22,54.7c10.5,1,16.5,8,16,29H15c0-9,10-6.5,8-21"/>
	<path class="st2" d="M24,62.7c0.4,2.9-5.5,7.4-8,9c-3,2-2.8,4.3-5,4c-1-0.9,1.4-3,0-3c-1,0,0.2,1.2-1,2c-1,0-4,1-4-4c0-2,6-12,6-12
		s1.9-1.9,2-3.5c-0.7-1-0.5-2-0.5-3c1-1,3,2.5,3,2.5h2c0,0,0.8-2,2.5-3c1,0,1,3,1,3"/>
	<path class="st2" d="M9.5,70.2c0,0.3-0.2,0.5-0.5,0.5s-0.5-0.2-0.5-0.5s0.2-0.5,0.5-0.5S9.5,69.9,9.5,70.2z"/>
	<path class="st2" d="M14.9,60.4c-0.4,0.7-0.9,1.2-1.2,1c-0.2-0.1-0.1-0.8,0.3-1.5c0.4-0.7,0.9-1.2,1.2-1
		C15.5,59,15.3,59.7,14.9,60.4z"/>
</g>
<g transform="translate(180,0)">
	<path class="st4" d="M9,83.7h27v-3H9V83.7z"/>
	<path class="st4" d="M12,80.7v-4h21v4H12z"/>
	<path class="st4" d="M11,58.7v-5h4v2h5v-2h5v2h5v-2h4v5"/>
	<path class="st2" d="M34,58.7l-3,3H14l-3-3"/>
	<path class="st1" d="M31,61.7v12.5H14V61.7"/>
	<path class="st2" d="M31,74.2l1.5,2.5h-20l1.5-2.5"/>
	<path class="st5" d="M11,58.7h23"/>
</g>
<g transform="translate(225,0)">
	<path class="st5" d="M22,53.7c-2.2,0-4,1.8-4,4c0,0.9,0.3,1.7,0.8,2.4c-2,1.1-3.3,3.2-3.3,5.6c0,2,0.9,3.8,2.4,5
		c-3,1.1-7.4,5.6-7.4,13.5h23c0-7.9-4.4-12.4-7.4-13.5c1.5-1.2,2.4-3,2.4-5c0-2.4-1.3-4.5-3.3-5.6c0.5-0.7,0.8-1.5,0.8-2.4
		C26,55.5,24.2,53.7,22,53.7z"/>
</g>
<g transform="translate(0,0)">
	<path class="st6" d="M22.5,11.6V6"/>
	<path class="st6" d="M20,8h5"/>
	<path class="st7" d="M22.5,25c0,0,4.5-7.5,3-10.5c0,0-1-2.5-3-2.5s-3,2.5-3,2.5C18,17.5,22.5,25,22.5,25"/>
	<path class="st8" d="M11.5,37c5.5,3.5,15.5,3.5,21,0v-7c0,0,9-4.5,6-10.5c-4-6.5-13.5-3.5-16,4V27v-3.5c-3.5-7.5-13-10.5-16-4
		c-3,6,5,10,5,10V37z"/>
	<path class="st9" d="M11.5,30c5.5-3,15.5-3,21,0"/>
	<path class="st9" d="M11.5,33.5c5.5-3,15.5-3,21,0"/>
	<path class="st9" d="M11.5,37c5.5-3,15.5-3,21,0"/>
</g>
<g transform="translate(45,0)">
	<path class="st8" d="M8,12c0,1.1-0.9,2-2,2s-2-0.9-2-2s0.9-2,2-2S8,10.9,8,12z"/>
	<path class="st8" d="M24.5,7.5c0,1.1-0.9,2-2,2s-2-0.9-2-2s0.9-2,2-2S24.5,6.4,24.5,7.5z"/>
	<path class="st8" d="M41,12c0,1.1-0.9,2-2,2s-2-0.9-2-2s0.9-2,2-2S41,10.9,41,12z"/>
	<path class="st8" d="M16,8.5c0,1.1-0.9,2-2,2s-2-0.9-2-2s0.9-2,2-2S16,7.4,16,8.5z"/>
	<path class="st8" d="M33,9c0,1.1-0.9,2-2,2s-2-0.9-2-2s0.9-2,2-2S33,7.9,33,9z"/>
	<path class="st10" d="M9,26c8.5-1.5,21-1.5,27,0l2-12l-7,11V11l-5.5,13.5l-3-15l-3,15l-5.5-14V25L7,14L9,26z"/>
	<path class="st10" d="M9,26c0,2,1.5,2,2.5,4c1,1.5,1,1,0.5,3.5c-1.5,1-1.5,2.5-1.5,2.5C9,37.5,11,38.5,11,38.5c6.5,1,16.5,1,23,0
		c0,0,1.5-1,0-2.5c0,0,0.5-1.5-1-2.5c-0.5-2.5-0.5-2,0.5-3.5c1-2,2.5-2,2.5-4C27.5,24.5,17.5,24.5,9,26z"/>
	<path class="st9" d="M11.5,30c3.5-1,18.5-1,22,0"/>
	<path class="st9" d="M12,33.5c6-1,15-1,21,0"/>
</g>
<g transform="translate(90,0)">
	<g>
		<path class="st10" d="M9,36c3.4-1,10.1,0.4,13.5-2c3.4,2.4,10.1,1,13.5,2c0,0,1.7,0.5,3,2c-0.7,1-1.7,1-3,0.5
			c-3.4-1-10.1,0.5-13.5-1c-3.4,1.5-10.1,0-13.5,1C7.6,39,6.7,39,6,38C7.4,36.1,9,36,9,36z"/>
		<path class="st10" d="M15,32c2.5,2.5,12.5,2.5,15,0c0.5-1.5,0-2,0-2c0-2.5-2.5-4-2.5-4c5.5-1.5,6-11.5-5-15.5
			c-11,4-10.5,14-5,15.5c0,0-2.5,1.5-2.5,4C15,30,14.5,30.5,15,32z"/>
		<path class="st10" d="M25,8c0,1.4-1.1,2.5-2.5,2.5S20,9.4,20,8s1.1-2.5,2.5-2.5S25,6.6,25,8z"/>
	</g>
	<path class="st6" d="M17.5,26h10 M15,30h15 M22.5,15.5v5 M20,18h5"/>
</g>
<g transform="translate(135,0)">
	<path class="st8" d="M22,10c10.5,1,16.5,8,16,29H15c0-9,10-6.5,8-21"/>
	<path class="st8" d="M24,18c0.4,2.9-5.5,7.4-8,9c-3,2-2.8,4.3-5,4c-1-0.9,1.4-3,0-3c-1,0,0.2,1.2-1,2c-1,0-4,1-4-4c0-2,6-12,6-12
		s1.9-1.9,2-3.5c-0.7-1-0.5-2-0.5-3c1-1,3,2.5,3,2.5h2c0,0,0.8-2,2.5-3c1,0,1,3,1,3"/>
	<path class="st11" d="M9.5,25.5C9.5,25.8,9.3,26,9,26s-0.5-0.2-0.5-0.5S8.7,25,9,25S9.5,25.2,9.5,25.5z"/>
	<path class="st11" d="M14.9,15.8c-0.4,0.7-0.9,1.2-1.2,1c-0.2-0.1-0.1-0.8,0.3-1.5c0.4-0.7,0.9-1.2,1.2-1
		C15.5,14.3,15.3,15,14.9,15.8z"/>
</g>
<g transform="translate(180,0)">
	<path class="st10" d="M9,39h27v-3H9V39z"/>
	<path class="st10" d="M12,36v-4h21v4H12z"/>
	<path class="st10" d="M11,14V9h4v2h5V9h5v2h5V9h4v5"/>
	<path class="st8" d="M34,14l-3,3H14l-3-3"/>
	<path class="st7" d="M31,17v12.5H14V17"/>
	<path class="st8" d="M31,29.5l1.5,2.5h-20l1.5-2.5"/>
	<path class="st6" d="M11,14h23"/>
</g>
<g transform="translate(225,0)">
	<path class="st12" d="M22,9c-2.2,0-4,1.8-4,4c0,0.9,0.3,1.7,0.8,2.4c-2,1.1-3.3,3.2-3.3,5.6c0,2,0.9,3.8,2.4,5
		c-3,1.1-7.4,5.5-7.4,13.5h23c0-7.9-4.4-12.4-7.4-13.5c1.5-1.2,2.4-3,2.4-5c0-2.4-1.3-4.5-3.3-5.6c0.5-0.7,0.8-1.5,0.8-2.4
		C26,10.8,24.2,9,22,9z"/>
</g>
</svg>
